Coordinates
version=1
nRows=7
nColumns=33
inDegrees=yes

Units are S.I. units (second, meters, Newtons, ...)
Angles are in degrees.

endheader
time	ground_thorax_rot_x	ground_thorax_rot_y	ground_thorax_rot_z	ground_thorax_tx	ground_thorax_ty	ground_thorax_tz	clav_prot_r	clav_elev_r	scapula_abduction_r	scapula_elevation_r	scapula_upward_rot_r	scapula_winging_r	shoulder_elv_r	plane_of_elev_r	axial_rot_r	elbow_flexion_r	pro_sup_r	wrist_flex_r	wrist_dev_r	clav_prot_l	clav_elev_l	scapula_abduction_l	scapula_elevation_l	scapula_upward_rot_l	scapula_winging_l	shoulder_elv_l	plane_of_elev_l	axial_rot_l	elbow_flexion_l	pro_sup_l	wrist_flex_l	wrist_dev_l
      7.08000000	    -40.41205335	    -11.26933787	      7.45611736	    -76.61897013	    796.68533569	     -3.20089252	      7.26048756	    -45.00000000	     38.27180985	    -45.00000000	    -29.35747235	  -2250.31046057	  -1735.79760378	     28.62310170	     81.68047111	   1089.83730501	     23.33325778	     17.42174496	      9.77078422	     18.06842858	     41.34290193	    -42.55610516	    -44.90677840	    -41.75551120	   1517.34148149	  -2979.44572141	    135.71285347	   -179.99999979	   1445.82083027	     22.42827158	     11.09044740	    -19.28509087
      7.09000000	    -40.31940156	    -11.64309238	      8.02627283	    -82.38624337	    796.47216740	     -3.74062170	      7.90066758	    -45.00000000	     38.00451318	    -45.00000000	    -29.96739898	  -2251.05832599	  -1735.94432078	     28.43572941	     84.21033132	   1090.00307260	     25.16420992	     17.26928308	      9.05581111	     18.67279875	     40.85781803	    -42.29408936	    -45.00000000	    -42.83017725	   1517.40669655	  -2979.38879014	    135.74050482	   -179.99999979	   1445.91840993	     23.56934156	     11.27155699	    -19.57879372
      7.10000000	    -40.33282652	    -12.36114239	      9.12404773	    -88.21622839	    796.35698042	     -4.28125465	      7.46340338	    -45.00000000	     36.44787199	    -45.00000000	    -34.29969419	  -2250.43253729	  -1734.89383737	     28.92069866	     81.33099469	   1090.17691399	     26.84690527	     17.67758872	      9.75566414	     18.03231660	     40.44164821	    -41.93525258	    -45.00000000	    -44.57532377	   1517.54070971	  -2978.90563188	    135.69149034	   -179.99999979	   1445.95370956	     24.26351291	     11.04428812	    -19.61626581
      7.11000000	    -40.16966451	    -12.47077628	      9.31606083	    -94.07973428	    796.34601073	     -4.82196070	      8.73847559	    -45.00000000	     36.37404476	    -45.00000000	    -33.61389624	  -2251.33223756	  -1735.12683745	     28.54140220	     85.19031930	   1090.42682133	     28.68933564	     17.57583151	      9.11882123	     18.30316084	     40.32323718	    -41.60604557	    -45.00000000	    -45.00000000	   1517.50174561	  -2979.05179591	    135.94650622	   -179.99999979	   1446.09443254	     25.65380311	     11.03896221	    -19.89548950
      7.12000000	    -40.32325435	    -12.62576777	      9.55759790	    -99.95713290	    796.46439284	     -5.35973044	      7.58231780	    -45.00000000	     35.46853449	    -45.00000000	    -36.71748464	  -2251.00308271	  -1734.59130620	     29.10603637	     83.07337459	   1090.48951952	     30.41206386	     17.73295727	      9.17044997	     17.77630834	     40.21283643	    -40.85510159	    -45.00000000	    -45.00000000	   1517.82126185	  -2978.79313004	    135.82116237	   -179.99999979	   1446.18697415	     26.86635077	     11.36977440	    -20.12938148
      7.13000000	    -40.37345414	    -12.65746802	      9.65217369	   -105.81421828	    796.71775785	     -5.88978050	      7.86268501	    -45.00000000	     35.06592903	    -45.00000000	    -37.66954246	  -2251.22684145	  -1734.45153717	     29.05584704	     83.91947095	   1090.74966133	     32.36298196	     17.81751138	      8.94314846	     17.65117222	     40.14177417	    -40.33497967	    -45.00000000	    -45.00000000	   1517.97955282	  -2978.74779668	    135.94261394	   -179.99999979	   1446.30090089	     28.24927889	     11.50035863	    -20.42659968
      7.14000000	    -40.40446789	    -12.56772790	      9.64655359	   -111.62478300	    797.11972128	     -6.40575445	      7.93333139	    -45.00000000	     34.67543676	    -45.00000000	    -38.65281646	  -2251.41405085	  -1734.24152686	     29.11281695	     84.05078133	   1090.96408774	     34.19384523	     17.89660734	      8.77890802	     17.39020446	     40.13228474	    -39.99480469	    -45.00000000	    -45.00000000	   1518.05434914	  -2978.82231316	    136.18234099	   -179.99999979	   1446.40897534	     29.67271486	     11.63549326	    -20.74914974
